<?xml version="1.0" encoding="UTF-8"?>
<svg width="512px" height="512px" viewBox="0 0 512 512" version="1.1" xmlns="http://www.w3.org/2000/svg" xmlns:xlink="http://www.w3.org/1999/xlink">
    <title>ironavirus</title>
    <g id="Page-1" stroke="none" stroke-width="1" fill="none" fill-rule="evenodd">
        <g id="ironavirus" fill-rule="nonzero">
            <g id="Path" fill="#FFFFFF" fill-opacity="0.01">
                <g id="path-2-link">
                    <path d="M146.141456,-5.90428975e-15 L365.858544,-5.90428975e-15 C416.675112,-5.90428975e-15 435.102427,5.29105984 453.680205,15.2265641 C472.257983,25.1620684 486.837932,39.7420171 496.773436,58.3197949 C506.70894,76.8975727 512,95.3248882 512,146.141456 L512,365.858544 C512,416.675112 506.70894,435.102427 496.773436,453.680205 C486.837932,472.257983 472.257983,486.837932 453.680205,496.773436 C435.102427,506.70894 416.675112,512 365.858544,512 L146.141456,512 C95.3248882,512 76.8975727,506.70894 58.3197949,496.773436 C39.7420171,486.837932 25.1620684,472.257983 15.2265641,453.680205 C5.29105984,435.102427 -3.93619317e-15,416.675112 -3.93619317e-15,365.858544 L-3.93619317e-15,146.141456 C-3.93619317e-15,95.3248882 5.29105984,76.8975727 15.2265641,58.3197949 C25.1620684,39.7420171 39.7420171,25.1620684 58.3197949,15.2265641 C76.8975727,5.29105984 95.3248882,-5.90428975e-15 146.141456,-5.90428975e-15 Z" id="path-2"></path>
                </g>
            </g>
            <g transform="translate(52.2645, 52.2645)" fill="#C09F52" id="Coronavirus">
                <path d="M193.078749,25.7271305 C184.8399,25.7271305 179.347335,31.2196965 179.347335,39.4585454 C179.347335,44.9511113 182.093618,49.1563571 186.213042,51.9026401 C188.959325,53.2757816 191.705608,55.9362432 193.078749,60.0556677 L193.078749,67.7795885 C182.494616,68.6301673 172.390959,70.2311542 162.612173,73.3579758 C162.356746,70.8130311 163.42418,67.8258003 165.61592,65.634055 C168.362203,62.887772 170.07863,57.3093847 167.332347,53.1899603 C164.586064,46.3242528 157.462892,43.5779698 150.597185,46.3242528 L130.000062,54.4772804 C123.134355,57.2235634 120.388072,64.3467348 123.134355,71.2124423 C124.507496,75.3318667 128.798564,77.9923284 134.29113,79.3654698 C137.380698,79.3654698 139.612053,80.2451386 141.156837,82.3692168 C131.669833,87.3124823 123.01567,93.4601548 114.981327,100.391699 L109.40294,94.3842049 C108.029799,90.2647804 108.029799,85.9737132 109.40294,83.2274303 C110.776082,77.7348643 109.660404,73.6154399 105.54098,69.4960154 C100.048414,64.0034495 91.7237432,64.0034495 86.2311773,69.4960154 L69.4960154,86.2311773 C64.0034495,91.7237432 64.0034495,100.048414 69.4960154,105.54098 C73.6154399,109.660404 77.7348643,109.488761 83.2274303,108.11562 C85.9737132,108.11562 90.3506017,107.943977 93.0968847,110.69026 L99.1043787,116.268648 C92.6614506,123.935312 87.033648,132.204965 82.3692168,141.156837 C80.2451386,139.290223 79.3654698,136.350842 79.3654698,134.29113 C77.9923284,128.798564 75.3318667,124.507496 71.2124423,123.134355 C64.3467348,120.388072 57.2235634,123.134355 54.4772804,130.000062 L46.3242528,150.597185 C43.5779698,157.462892 46.3242528,164.586064 53.1899603,167.332347 C57.3093847,168.705488 62.887772,168.362203 65.634055,165.61592 C67.8258003,163.42418 70.8130311,162.356746 73.3579758,162.612173 C70.1872988,172.528122 68.1786221,182.765811 67.3504818,193.507856 L60.0556677,193.078749 C55.9362432,193.078749 53.2757816,190.332466 51.9026401,186.213042 C49.1563571,182.093618 44.9511113,178.060014 39.4585454,178.060014 C31.2196965,178.060014 25.7271305,183.55258 25.7271305,191.791429 L25.7271305,215.392299 C25.7271305,223.631148 31.2196965,229.123713 39.4585454,229.123713 C44.9511113,229.123713 49.1563571,226.37743 51.9026401,222.258006 C53.2757816,219.511723 55.9362432,216.76544 60.0556677,215.392299 L67.7795885,215.392299 C68.6301673,225.976432 70.2311542,236.080089 73.3579758,245.858875 C70.8130311,246.114307 67.8258003,245.046868 65.634055,242.855128 C62.887772,240.108845 57.3093847,238.392418 53.1899603,241.138701 C46.3242528,243.884984 43.5779698,251.008156 46.3242528,257.873863 L54.4772804,278.470986 C57.2235634,285.336693 64.3467348,288.082976 71.2124423,285.336693 C75.3318667,283.963552 77.9923284,279.672484 79.3654698,274.179918 C79.3654698,271.09035 80.2451386,268.858995 82.3692168,267.314211 C87.3124823,276.801218 93.4601548,285.455374 100.391699,293.489721 L94.3842049,299.068108 C90.2647804,300.441249 85.9737132,300.441249 83.2274303,299.068108 C77.7348643,297.694966 73.6154399,298.810644 69.4960154,302.930068 C64.0034495,308.422634 64.0034495,316.747305 69.4960154,322.239871 L86.2311773,338.975032 C91.7237432,344.467598 100.048414,344.467598 105.54098,338.975032 C109.660404,334.855608 109.488761,330.736183 108.11562,325.243618 C108.11562,322.497335 107.943977,318.120446 110.69026,315.374163 L116.268648,309.366669 C124.031537,315.890464 132.507148,321.403229 141.585944,326.101831 C139.813174,328.156133 136.652933,329.211996 134.29113,330.392898 C128.798564,330.392898 124.507496,333.139181 123.134355,337.258606 C120.388072,344.124313 123.134355,351.247484 130.000062,353.993767 L150.597185,362.146795 C157.462892,364.893078 164.586064,362.146795 167.332347,355.281088 C168.705488,351.161663 168.362203,345.583276 165.61592,342.836993 C163.499936,340.721009 163.581844,338.032343 163.470386,335.542179 C173.108109,338.548493 183.09862,340.318088 193.507856,341.120566 L193.078749,348.41538 C193.078749,352.534805 190.332466,355.195266 186.213042,356.568408 C182.093618,359.314691 178.060014,363.519936 178.060014,369.012502 C178.060014,377.251351 183.55258,382.743917 191.791429,382.743917 L215.392299,382.743917 C223.631148,382.743917 229.123713,377.251351 229.123713,369.012502 C229.123713,363.519936 226.37743,359.314691 222.258006,356.568408 C219.511723,355.195266 216.76544,352.534805 215.392299,348.41538 L215.392299,340.691459 C225.359342,339.890478 234.882435,338.368873 244.142448,335.542179 C243.826338,337.650857 242.845846,339.842528 241.138701,341.549673 C239.76556,345.669097 238.392418,351.161663 241.138701,355.281088 C243.884984,362.146795 251.008156,364.893078 257.873863,362.146795 L278.470986,353.993767 C285.336693,351.247484 288.082976,344.124313 285.336693,337.258606 C283.963552,333.139181 279.672484,330.478719 274.179918,329.105578 C271.09035,329.105578 268.858995,328.225916 267.314211,326.101831 C276.266077,321.437407 284.53574,315.8096 292.2024,309.366669 L297.780788,315.374163 C300.527071,318.120446 300.441249,322.411513 299.068108,326.530938 C297.694966,330.650362 298.810644,334.855608 302.930068,338.975032 C308.422634,344.467598 316.747305,344.467598 322.239871,338.975032 L338.975032,322.239871 C344.467598,316.747305 344.467598,308.422634 338.975032,302.930068 C334.855608,298.810644 330.736183,298.982287 325.243618,300.355428 C321.124193,301.72857 318.206267,301.814391 314.086843,299.068108 L308.079349,293.489721 C315.092985,285.360229 321.125827,276.499896 326.101831,266.885104 C327.385265,268.703926 328.20698,271.095403 329.105578,272.892598 C330.478719,279.758306 333.139181,283.963552 337.258606,285.336693 C344.124313,288.082976 351.247484,285.336693 353.993767,278.470986 L362.146795,257.873863 C364.893078,251.008156 362.146795,243.884984 355.281088,241.138701 C351.161663,239.76556 345.583276,240.108845 342.836993,242.855128 C340.721009,244.971112 338.032343,244.889204 335.542179,245.000662 C338.548493,235.362939 340.318088,225.372428 341.120566,214.963192 L348.41538,215.392299 C352.534805,215.392299 355.195266,218.138582 356.568408,222.258006 C359.314691,226.37743 363.519936,230.411034 369.012502,230.411034 C377.251351,230.411034 382.743917,224.918468 382.743917,216.679619 L382.743917,193.078749 C382.743917,184.8399 377.251351,179.347335 369.012502,179.347335 C363.519936,179.347335 359.314691,182.093618 356.568408,186.213042 C355.195266,188.959325 352.534805,191.705608 348.41538,193.078749 L340.691459,193.078749 C339.84088,182.494616 338.239894,172.390959 335.113072,162.612173 C337.35695,162.809387 339.712629,163.778876 341.549673,165.61592 C345.669097,168.362203 351.161663,170.07863 355.281088,167.332347 C362.146795,164.586064 364.893078,157.462892 362.146795,150.597185 L353.993767,130.000062 C351.247484,123.134355 344.124313,120.388072 337.258606,123.134355 C333.139181,124.507496 330.478719,128.798564 329.105578,134.29113 C329.105578,137.380698 328.225916,139.612053 326.101831,141.156837 C321.158563,131.669833 315.010899,123.01567 308.079349,114.981327 L314.086843,109.40294 C318.206267,108.029799 322.497335,108.029799 325.243618,109.40294 C330.736183,110.776082 334.855608,109.660404 338.975032,105.54098 C344.467598,100.048414 344.467598,91.7237432 338.975032,86.2311773 L322.239871,69.4960154 C316.747305,64.0034495 308.422634,64.0034495 302.930068,69.4960154 C298.810644,73.6154399 298.982287,77.7348643 300.355428,83.2274303 C300.355428,85.9737132 300.527071,90.3506017 297.780788,93.0968847 L292.2024,99.1043787 C284.43951,92.5805863 275.963904,87.0678241 266.885104,82.3692168 C268.703926,81.0857868 271.095403,80.2640701 272.892598,79.3654698 C279.758306,77.9923284 283.963552,75.3318667 285.336693,71.2124423 C288.082976,64.3467348 285.336693,57.2235634 278.470986,54.4772804 L257.873863,46.3242528 C251.008156,43.5779698 243.884984,46.3242528 241.138701,53.1899603 C239.76556,57.3093847 240.108845,62.887772 242.855128,65.634055 C245.046868,67.8258003 246.114307,70.8130311 245.858875,73.3579758 C235.942926,70.1872988 225.705237,68.1786221 214.963192,67.3504818 L215.392299,60.0556677 C215.392299,55.9362432 218.138582,53.2757816 222.258006,51.9026401 C226.37743,49.1563571 230.411034,44.9511113 230.411034,39.4585454 C230.411034,31.2196965 224.918468,25.7271305 216.679619,25.7271305 L193.078749,25.7271305 Z M204.235524,94.3842049 C265.067381,94.3842049 314.086843,143.403673 314.086843,204.235524 C314.086843,265.067381 265.067381,314.086843 204.235524,314.086843 C143.403673,314.086843 94.3842049,265.067381 94.3842049,204.235524 C94.3842049,143.403673 143.403673,94.3842049 204.235524,94.3842049 Z M204.235524,121.847035 C196.65187,121.847035 190.504109,127.994799 190.504109,135.57845 C190.504109,143.1621 196.65187,149.309865 204.235524,149.309865 C211.819178,149.309865 217.966939,143.1621 217.966939,135.57845 C217.966939,127.994799 211.819178,121.847035 204.235524,121.847035 Z M156.175572,142.444157 C148.591922,142.444157 142.444157,148.591922 142.444157,156.175572 C142.444157,163.759226 148.591922,169.906987 156.175572,169.906987 C163.759226,169.906987 169.906987,163.759226 169.906987,156.175572 C169.906987,148.591922 163.759226,142.444157 156.175572,142.444157 Z M252.295476,142.444157 C244.711822,142.444157 238.564061,148.591922 238.564061,156.175572 C238.564061,163.759226 244.711822,169.906987 252.295476,169.906987 C259.87913,169.906987 266.026891,163.759226 266.026891,156.175572 C266.026891,148.591922 259.87913,142.444157 252.295476,142.444157 Z M135.57845,190.504109 C127.994799,190.504109 121.847035,196.65187 121.847035,204.235524 C121.847035,211.819178 127.994799,217.966939 135.57845,217.966939 C143.1621,217.966939 149.309865,211.819178 149.309865,204.235524 C149.309865,196.65187 143.1621,190.504109 135.57845,190.504109 Z M204.235524,190.504109 C196.65187,190.504109 190.504109,196.65187 190.504109,204.235524 C190.504109,211.819178 196.65187,217.966939 204.235524,217.966939 C211.819178,217.966939 217.966939,211.819178 217.966939,204.235524 C217.966939,196.65187 211.819178,190.504109 204.235524,190.504109 Z M272.892598,190.504109 C265.308944,190.504109 259.161183,196.65187 259.161183,204.235524 C259.161183,211.819178 265.308944,217.966939 272.892598,217.966939 C280.476253,217.966939 286.624013,211.819178 286.624013,204.235524 C286.624013,196.65187 280.476253,190.504109 272.892598,190.504109 Z M156.175572,238.564061 C148.591922,238.564061 142.444157,244.711822 142.444157,252.295476 C142.444157,259.87913 148.591922,266.026891 156.175572,266.026891 C163.759226,266.026891 169.906987,259.87913 169.906987,252.295476 C169.906987,244.711822 163.759226,238.564061 156.175572,238.564061 Z M252.295476,238.564061 C244.711822,238.564061 238.564061,244.711822 238.564061,252.295476 C238.564061,259.87913 244.711822,266.026891 252.295476,266.026891 C259.87913,266.026891 266.026891,259.87913 266.026891,252.295476 C266.026891,244.711822 259.87913,238.564061 252.295476,238.564061 Z M204.235524,259.161183 C196.65187,259.161183 190.504109,265.308944 190.504109,272.892598 C190.504109,280.476253 196.65187,286.624013 204.235524,286.624013 C211.819178,286.624013 217.966939,280.476253 217.966939,272.892598 C217.966939,265.308944 211.819178,259.161183 204.235524,259.161183 Z" id="Shape" transform="translate(204.2355, 204.2355) rotate(9) translate(-204.2355, -204.2355)"></path>
            </g>
        </g>
    </g>
</svg>